<?xml version="1.0" encoding="UTF-8"?>
<svg version="1.1" viewBox="0 0 640.08 479.93" xmlns="http://www.w3.org/2000/svg">
 <g transform="translate(161.62 -1526.9)">
  <g transform="matrix(.40338 0 0 .38564 -96.429 1232.9)">
   <path d="m809.98 1274.5s-43.679-50.174-17.027-17.623c88.931 108.61 112.89 259.65 189.09 327.38 76.201 67.734 82.554 69.871 170.24 79.365 67.864 7.3475 120.85-13.014 169.84-34.209 7.6361-3.304 47.845-21.648 55.446-19.757 60.078 14.95 48.478 23.426 15.121 16.348-17.623-3.7396-55.489 14.195-76.211 28.809-76.22 53.752-153.81 76.2-261.06 50.8s-262.47-242.71-279.4-276.58c-16.933-33.867-135.47-71.967-158.05-55.034-22.578 16.934-79.023 83.256-70.556 145.35 8.4667 62.089 67.734 245.53 90.312 276.58 22.578 31.045 61.889 45.725 97.443 83.41 28.482 30.189 120.78 45.643 87.813 47.807-36.224 2.3775-121.12-44.668-135.7-57.443-24.65-21.602-26.432-2.2255-104.14-68.873-103.63-88.876-145.79-213.75-157.08-295.59-11.289-81.845 33.725-152.4 33.725-152.4s-36.689-33.867-79.023 25.4-84.525 222.96-149.44 296.34c-64.912 73.378-141.82 167.26-234.19 153.83-61.253-8.9038-89.11 50.958-93.819 36.239-11.386-35.596 74.868-66.551 118.65-73.696 104.37-17.032 115.61-75.867 164.46-149.27 70.06-105.29 62.263-208.72 177.03-345.88 40.409-48.292 42.015-56.327 87.998-92.532 43.734-34.434 246.95-132.65 382.41-25.4 135.47 107.25 270.97 137.41 331.19 207.88 125.18 146.5 97.256 244.4 90.737 215.46-22.952-101.92-70.556-158.05-166.51-174.98-95.956-16.934-208.47-94.223-231.42-101.6-32.556-10.462-13.33 5.0759-30.325-22.514-5.2895-8.587-17.56-27.596-17.56-27.596z" fill="#782121" stroke="#000" stroke-width="10"/>
   <path d="m560.48 1251.9c-4.1629-41.825 4.6072-84.092 11.289-125.59 5.9128-36.722 17.073-72.405 25.4-108.66 2.9564-12.87 4.6991-20.72 8.721-38.643 19.638-87.512 65.789-131.67 126.4-165.5 66.049-36.864 167.13-70.308 225.8-22.561 67.004 54.534 50.44 174.56 27.136 257.75-11.963 42.707-41.365 85.23-80.642 105.83-39.263 20.592-116.93-21.508-132.86 6.1702-20.341 35.334-22.589 63.799-30.732 84.212-32.79 82.206-29.72 80.128-60.466 107.36-18.315 16.223-44.698 35.998-67.834 28.039-18.923-6.5092-21.801-33.796-29.634-52.211-10.369-24.378-19.954-49.839-22.578-76.2z" fill="#c83737" stroke="#000" stroke-width="10"/>
   <path d="m435.22 1291.3s-8.266 4.6421-18.453 18.128c-84.611 112.01-112.89 259.65-189.09 327.38-76.2 67.734-53.141 30.653-140.83 40.147-67.864 7.3474-168.42-22.92-202.29-3.1647-33.867 19.756-75.191 41.445 5.6445 25.4 91.482-18.158 186.27 45.156 293.51 19.756 107.25-25.4 262.47-242.71 279.4-276.58 16.933-33.867 133.13-68.298 158.05-55.034 25.782 13.729 79.165 83.113 70.556 145.35-8.5873 62.073-67.734 245.53-90.312 276.58-22.578 31.045-31.045 93.134-5.6445 138.29s67.734 62.089 98.778 50.8c31.045-11.289-9.3936-12.641-29.149-29.575-19.756-16.933-77.127-36.08-9.3936-154.61 67.734-118.53 145.79-213.75 157.08-295.59 11.289-81.845-19.756-152.4-19.756-152.4s36.689-33.867 79.023 25.4 70.556 222.96 135.47 296.34c64.912 73.378 211.67 121.36 268.11 95.956 56.445-25.4 81.845-70.556 81.845-87.49 0-16.933-52.855 37.917-86.722 52.028s-162.2-19.951-204.37-97.384c-56.445-103.66-33.065-184.3-157.08-355.86-25.826-35.728-73.946-50.34-121.92-78.563-47.978-28.222-246.95-132.65-382.41-25.4-135.47 107.25-241.64 183.93-331.19 207.88-51.802 13.854-200.8-49.832-175.4-24.432s155.22 81.845 251.18 64.912c95.956-16.934 203.13-79.375 221.02-95.534 49.021-44.26 13.33 5.0759 30.325-22.514 5.2894-8.587 34.025-30.196 34.025-30.196z" fill="#c83737" stroke="#000" stroke-width="10"/>
   <path d="m468.75 1243.4c0-5.9408 34.486-39.311 50.257-60.137 3.3471-4.4197 5.2582-10.033 9.3937-13.726 13.857-12.372-11.337 3.2127 49.247-26.085" fill="#c83737" stroke="#000" stroke-width="10"/>
   <path d="m776.04 1253.5c0 36.239-111.85 88.195-148.87 88.195-37.019 0-98.073-91.467-98.073-127.71 0-36.239 77.988-112.18 115.01-112.18 37.019 0 131.94 115.46 131.94 151.7z" fill="#c83737"/>
   <path transform="matrix(2.479 0 0 2.5931 -161.6 762.3)" d="m309.91 90.815s0.1532-4.9022 5.2086-4.5958c5.0554 0.30639 24.358-3.6767 26.043-3.983 1.6851-0.30639 18.69 0.30639 21.907 2.2979 3.2171 1.9915 18.335 1.4563 25.43 6.5874 6.4966 4.6978 9.5932 12.974 13.022 20.222 4.7718 10.087 5.0554 27.269 10.264 31.864 4.6052 4.0634 14.962 4.7846 17.614 5.1823 0.34742 0.0521-7.203 3.2789-7.0433 3.2434 1.3788-0.30638-5.8214 0.76596-9.498 0.30638-3.6767-0.45958-26.503-5.515-30.486-3.6767s-11.678 4.8573-14.247 16.698c-0.72111 3.3242-4.9022 0.61278-5.6682-2.4511-0.76597-3.0639 2.7575-6.4342 2.1447-8.5789-0.87575-3.0651 18.69-21.141 19.762-29.26 1.0724-8.1193-0.61277-18.996-10.724-21.907-10.111-2.9107-52.392-8.8853-52.392-8.8853l-11.34-2.755z" fill="#a02c2c" stroke="#a02c2c" stroke-width="3"/>
   <path d="m574.86 1138.3s7.5981-19.278 1.1466-29.669c-11.932-19.216-27.83-50.305-21.556-71.454 9.6675-32.584 34.373-52.808 67.672-43.82 33.299 8.9886 49.223-20.921 114.94 17.977 43.246 8.2947 67.978-3.4343 75.192 30.337 9.6675 52.808-15.038 96.628-40.818 105.62-25.78 8.9887-35.447 11.236-38.67 25.842" fill="#c83737" stroke="#000" stroke-width="7.6063"/>
   <path transform="translate(-286.19 791.71)" d="m1073.9 280.27c0 21.432-17.058 38.806-38.1 38.806s-38.1-17.374-38.1-38.806 17.058-38.806 38.1-38.806 38.1 17.374 38.1 38.806z" fill="#a02c2c"/>
   <path transform="translate(-305.95 797.35)" d="m1086.6 272.51c0 16.366-13.267 29.634-29.634 29.634-16.366 0-29.634-13.267-29.634-29.634 0-16.366 13.267-29.634 29.634-29.634 16.366 0 29.634 13.267 29.634 29.634z" fill="#c83737" stroke="#000" stroke-width="4"/>
   <path d="m727.37 1059.5s31.93-6.9846 42.906 3.9913 0.9979 13.969 0.9979 13.969-6.7607-7.6426-20.954 0c-25.943 13.969-22.95-17.961-22.95-17.961z" stroke="#000" stroke-width="4"/>
   <path transform="translate(-307.36 810.05)" d="m1055.7 259.93c0 2.4798-2.4571 4.4902-5.488 4.4902s-5.488-2.0103-5.488-4.4902c0-2.4798 2.4571-4.4902 5.488-4.4902s5.488 2.0103 5.488 4.4902z" fill="#fff" stroke="#fff" stroke-width="4"/>
   <path transform="translate(-437.18 768.43)" d="m1073.9 280.27c0 21.432-17.058 38.806-38.1 38.806s-38.1-17.374-38.1-38.806 17.058-38.806 38.1-38.806 38.1 17.374 38.1 38.806z" fill="#a02c2c"/>
   <path transform="translate(-462.27 774.02)" d="m1086.6 272.51c0 16.366-13.267 29.634-29.634 29.634-16.366 0-29.634-13.267-29.634-29.634 0-16.366 13.267-29.634 29.634-29.634 16.366 0 29.634 13.267 29.634 29.634z" fill="#c83737" stroke="#000" stroke-width="4"/>
   <path d="m572.05 1043.2s30.932-13.969 41.908-2.9934 0.9979 13.969 0.9979 13.969-6.9847-3.9912-21.952 1.9957-20.954-12.972-20.954-12.972z" stroke="#000" stroke-width="4"/>
   <path transform="translate(-463.68 786.72)" d="m1055.7 259.93c0 2.4798-2.4571 4.4902-5.488 4.4902s-5.488-2.0103-5.488-4.4902c0-2.4798 2.4571-4.4902 5.488-4.4902s5.488 2.0103 5.488 4.4902z" fill="#fff" stroke="#fff" stroke-width="4"/>
   <path d="m697.22 954.45s37.138-29.647 47.116-47.608c9.9782-17.961 35.921-61.864 59.869-83.816s83.916-33.483 83.916-33.483-95.748-25.459-135.66 46.384c-39.912 71.842-41.036 101.33-54.793 118.06-1.5587 1.8952-0.44784 0.46756-0.44784 0.46756z" fill="#a02c2c"/>
   <path d="m693.24 958.41c29.101-27.703 19.835-15.289 27.739-25.024 8.8333-10.88 11.041-21.904 21.363-36.528 11.974-16.963 22.839-40.198 45.899-69.847 20.954-26.941 54.88-27.939 100.78-40.91" fill="none" stroke="#000" stroke-width="10"/>
   <path d="m633.83 1392.4s-21.909-15.226-55.749-8.6432c-37.304 7.2567-27.466 5.056-31.677 7.3139-2.0208 1.0834-29.042 9.868-41.888 15.503-82.779 36.311-47.836-33.359 6.3328-96.599 26.002-30.356 32.442-39.776 37.875-45.633 13.367-14.409 44.004-16.65 55.978-16.65s24.987 1.1889 30.46 40.013c5.5442 39.328-5.133 16.246 13.285 58.959 22.308 51.736 63.307 173.03 45.434 132.91-10.137-22.752-21.874-42.691-60.05-87.175z" fill="#a02c2c"/>
   <g fill="#d35f5f">
    <path transform="matrix(.38294 .47505 -.47505 .38294 1163 468.41)" d="m246.11 647.63c0 9.8115-11.058 17.765-24.698 17.765s-24.698-7.9538-24.698-17.765c0-9.8115 11.058-17.765 24.698-17.765s24.698 7.9538 24.698 17.765z"/>
    <path transform="matrix(.38294 .47505 -.47505 .38294 1189.8 533.41)" d="m246.11 647.63c0 9.8115-11.058 17.765-24.698 17.765s-24.698-7.9538-24.698-17.765c0-9.8115 11.058-17.765 24.698-17.765s24.698 7.9538 24.698 17.765z"/>
    <path transform="matrix(.62759 .77855 -.77855 .62759 1293.2 284.37)" d="m246.11 647.63c0 9.8115-11.058 17.765-24.698 17.765s-24.698-7.9538-24.698-17.765c0-9.8115 11.058-17.765 24.698-17.765s24.698 7.9538 24.698 17.765z"/>
    <path transform="matrix(.62759 .77855 -.77855 .62759 1254.2 240.18)" d="m246.11 647.63c0 9.8115-11.058 17.765-24.698 17.765s-24.698-7.9538-24.698-17.765c0-9.8115 11.058-17.765 24.698-17.765s24.698 7.9538 24.698 17.765z"/>
    <path transform="matrix(.62759 .77855 -.77855 .62759 1330.5 393.56)" d="m246.11 647.63c0 9.8115-11.058 17.765-24.698 17.765s-24.698-7.9538-24.698-17.765c0-9.8115 11.058-17.765 24.698-17.765s24.698 7.9538 24.698 17.765z"/>
    <path transform="matrix(.62759 .77855 -.77855 .62759 1315.8 449.03)" d="m246.11 647.63c0 9.8115-11.058 17.765-24.698 17.765s-24.698-7.9538-24.698-17.765c0-9.8115 11.058-17.765 24.698-17.765s24.698 7.9538 24.698 17.765z"/>
    <path transform="matrix(.62759 .77855 -.77855 .62759 1279.4 332.9)" d="m246.11 647.63c0 9.8115-11.058 17.765-24.698 17.765s-24.698-7.9538-24.698-17.765c0-9.8115 11.058-17.765 24.698-17.765s24.698 7.9538 24.698 17.765z"/>
    <path transform="matrix(.40741 .5054 -.5054 .40741 1151.2 595.77)" d="m246.11 647.63c0 9.8115-11.058 17.765-24.698 17.765s-24.698-7.9538-24.698-17.765c0-9.8115 11.058-17.765 24.698-17.765s24.698 7.9538 24.698 17.765z"/>
   </g>
   <g transform="matrix(.89977 .43636 -.43636 .89977 478.28 -319.91)" fill="#a02c2c">
    <path transform="matrix(.38294 .47505 -.47505 .38294 1163 468.41)" d="m246.11 647.63c0 9.8115-11.058 17.765-24.698 17.765s-24.698-7.9538-24.698-17.765c0-9.8115 11.058-17.765 24.698-17.765s24.698 7.9538 24.698 17.765z"/>
    <path transform="matrix(.38294 .47505 -.47505 .38294 1189.8 533.41)" d="m246.11 647.63c0 9.8115-11.058 17.765-24.698 17.765s-24.698-7.9538-24.698-17.765c0-9.8115 11.058-17.765 24.698-17.765s24.698 7.9538 24.698 17.765z"/>
    <path transform="matrix(.62759 .77855 -.77855 .62759 1293.2 284.37)" d="m246.11 647.63c0 9.8115-11.058 17.765-24.698 17.765s-24.698-7.9538-24.698-17.765c0-9.8115 11.058-17.765 24.698-17.765s24.698 7.9538 24.698 17.765z"/>
    <path transform="matrix(.62759 .77855 -.77855 .62759 1254.2 240.18)" d="m246.11 647.63c0 9.8115-11.058 17.765-24.698 17.765s-24.698-7.9538-24.698-17.765c0-9.8115 11.058-17.765 24.698-17.765s24.698 7.9538 24.698 17.765z"/>
    <path transform="matrix(.62759 .77855 -.77855 .62759 1330.5 393.56)" d="m246.11 647.63c0 9.8115-11.058 17.765-24.698 17.765s-24.698-7.9538-24.698-17.765c0-9.8115 11.058-17.765 24.698-17.765s24.698 7.9538 24.698 17.765z"/>
    <path transform="matrix(.62759 .77855 -.77855 .62759 1315.8 449.03)" d="m246.11 647.63c0 9.8115-11.058 17.765-24.698 17.765s-24.698-7.9538-24.698-17.765c0-9.8115 11.058-17.765 24.698-17.765s24.698 7.9538 24.698 17.765z"/>
    <path transform="matrix(.62759 .77855 -.77855 .62759 1279.4 332.9)" d="m246.11 647.63c0 9.8115-11.058 17.765-24.698 17.765s-24.698-7.9538-24.698-17.765c0-9.8115 11.058-17.765 24.698-17.765s24.698 7.9538 24.698 17.765z"/>
    <path transform="matrix(.40741 .5054 -.5054 .40741 1151.2 595.77)" d="m246.11 647.63c0 9.8115-11.058 17.765-24.698 17.765s-24.698-7.9538-24.698-17.765c0-9.8115 11.058-17.765 24.698-17.765s24.698 7.9538 24.698 17.765z"/>
   </g>
  </g>
  <g transform="translate(3.6767 3.0639)">
   <path transform="matrix(.91193 -.41034 .41034 .91193 -227.94 1721.9)" d="m430.27 252.01c0 7.897-4.0739 14.299-9.0993 14.299s-9.0993-6.4018-9.0993-14.299c0-7.897 4.0739-14.299 9.0993-14.299s9.0993 6.4018 9.0993 14.299z" fill="#e9afaf" stroke="#000" stroke-width="4"/>
   <path transform="translate(-161.62 1526.9)" d="m423.12 257.32s0.29316-1.5935-0.0827-3.2555c-0.40593-1.7948-0.94264-4.4553-1.7297-5.7652-2.3017-3.8307-6.9351-2.4199-6.6876-2.967 0.48268-1.0669 2.3704-3.0918 4.492-1.7696 8.3499 5.204 10.162 20.355 2.5998 16.249"/>
  </g>
  <g transform="matrix(.80794 -.58926 .58926 .80794 -1018 481.72)">
   <path transform="matrix(.91193 -.41034 .41034 .91193 -227.94 1721.9)" d="m430.27 252.01c0 7.897-4.0739 14.299-9.0993 14.299s-9.0993-6.4018-9.0993-14.299c0-7.897 4.0739-14.299 9.0993-14.299s9.0993 6.4018 9.0993 14.299z" fill="#e9afaf" stroke="#000" stroke-width="4"/>
   <path transform="translate(-161.62 1526.9)" d="m423.12 257.32s0.29316-1.5935-0.0827-3.2555c-0.40593-1.7948-0.94264-4.4553-1.7297-5.7652-2.3017-3.8307-6.9351-2.4199-6.6876-2.967 0.48268-1.0669 2.3704-3.0918 4.492-1.7696 8.3499 5.204 10.162 20.355 2.5998 16.249"/>
  </g>
  <g transform="translate(17.771 29.413)">
   <path transform="matrix(.91193 -.41034 .41034 .91193 -227.94 1721.9)" d="m430.27 252.01c0 7.897-4.0739 14.299-9.0993 14.299s-9.0993-6.4018-9.0993-14.299c0-7.897 4.0739-14.299 9.0993-14.299s9.0993 6.4018 9.0993 14.299z" fill="#e9afaf" stroke="#000" stroke-width="4"/>
   <path transform="translate(-161.62 1526.9)" d="m423.12 257.32s0.29316-1.5935-0.0827-3.2555c-0.40593-1.7948-0.94264-4.4553-1.7297-5.7652-2.3017-3.8307-6.9351-2.4199-6.6876-2.967 0.48268-1.0669 2.3704-3.0918 4.492-1.7696 8.3499 5.204 10.162 20.355 2.5998 16.249"/>
  </g>
  <g transform="translate(30.026 61.278)">
   <path transform="matrix(.91193 -.41034 .41034 .91193 -227.94 1721.9)" d="m430.27 252.01c0 7.897-4.0739 14.299-9.0993 14.299s-9.0993-6.4018-9.0993-14.299c0-7.897 4.0739-14.299 9.0993-14.299s9.0993 6.4018 9.0993 14.299z" fill="#e9afaf" stroke="#000" stroke-width="4"/>
   <path transform="translate(-161.62 1526.9)" d="m423.12 257.32s0.29316-1.5935-0.0827-3.2555c-0.40593-1.7948-0.94264-4.4553-1.7297-5.7652-2.3017-3.8307-6.9351-2.4199-6.6876-2.967 0.48268-1.0669 2.3704-3.0918 4.492-1.7696 8.3499 5.204 10.162 20.355 2.5998 16.249"/>
  </g>
  <g transform="matrix(.98493 -.17296 .17296 .98493 -257.8 161.78)">
   <path transform="matrix(.91193 -.41034 .41034 .91193 -227.94 1721.9)" d="m430.27 252.01c0 7.897-4.0739 14.299-9.0993 14.299s-9.0993-6.4018-9.0993-14.299c0-7.897 4.0739-14.299 9.0993-14.299s9.0993 6.4018 9.0993 14.299z" fill="#e9afaf" stroke="#000" stroke-width="4"/>
   <path transform="translate(-161.62 1526.9)" d="m423.12 257.32s0.29316-1.5935-0.0827-3.2555c-0.40593-1.7948-0.94264-4.4553-1.7297-5.7652-2.3017-3.8307-6.9351-2.4199-6.6876-2.967 0.48268-1.0669 2.3704-3.0918 4.492-1.7696 8.3499 5.204 10.162 20.355 2.5998 16.249"/>
  </g>
  <g transform="matrix(.83841 -.35656 .35656 .83841 -524.97 493.35)">
   <path transform="matrix(.91193 -.41034 .41034 .91193 -227.94 1721.9)" d="m430.27 252.01c0 7.897-4.0739 14.299-9.0993 14.299s-9.0993-6.4018-9.0993-14.299c0-7.897 4.0739-14.299 9.0993-14.299s9.0993 6.4018 9.0993 14.299z" fill="#e9afaf" stroke="#000" stroke-width="4"/>
   <path transform="translate(-161.62 1526.9)" d="m423.12 257.32s0.29316-1.5935-0.0827-3.2555c-0.40593-1.7948-0.94264-4.4553-1.7297-5.7652-2.3017-3.8307-6.9351-2.4199-6.6876-2.967 0.48268-1.0669 2.3704-3.0918 4.492-1.7696 8.3499 5.204 10.162 20.355 2.5998 16.249"/>
  </g>
  <g transform="matrix(.65131 -.45254 .45254 .65131 -622.07 866.75)">
   <path transform="matrix(.91193 -.41034 .41034 .91193 -227.94 1721.9)" d="m430.27 252.01c0 7.897-4.0739 14.299-9.0993 14.299s-9.0993-6.4018-9.0993-14.299c0-7.897 4.0739-14.299 9.0993-14.299s9.0993 6.4018 9.0993 14.299z" fill="#e9afaf" stroke="#000" stroke-width="4"/>
   <path transform="translate(-161.62 1526.9)" d="m423.12 257.32s0.29316-1.5935-0.0827-3.2555c-0.40593-1.7948-0.94264-4.4553-1.7297-5.7652-2.3017-3.8307-6.9351-2.4199-6.6876-2.967 0.48268-1.0669 2.3704-3.0918 4.492-1.7696 8.3499 5.204 10.162 20.355 2.5998 16.249"/>
  </g>
  <g transform="matrix(.43597 -.66251 .66251 .43597 -914.78 1312)">
   <path transform="matrix(.91193 -.41034 .41034 .91193 -227.94 1721.9)" d="m430.27 252.01c0 7.897-4.0739 14.299-9.0993 14.299s-9.0993-6.4018-9.0993-14.299c0-7.897 4.0739-14.299 9.0993-14.299s9.0993 6.4018 9.0993 14.299z" fill="#e9afaf" stroke="#000" stroke-width="4"/>
   <path transform="translate(-161.62 1526.9)" d="m423.12 257.32s0.29316-1.5935-0.0827-3.2555c-0.40593-1.7948-0.94264-4.4553-1.7297-5.7652-2.3017-3.8307-6.9351-2.4199-6.6876-2.967 0.48268-1.0669 2.3704-3.0918 4.492-1.7696 8.3499 5.204 10.162 20.355 2.5998 16.249"/>
  </g>
  <g transform="matrix(.3123 -.72901 .72901 .3123 -976.45 1553.9)">
   <path transform="matrix(.76465 -.34724 .40767 .91308 -163.9 1694.4)" d="m430.27 252.01c0 7.897-4.0739 14.299-9.0993 14.299s-9.0993-6.4018-9.0993-14.299c0-7.897 4.0739-14.299 9.0993-14.299s9.0993 6.4018 9.0993 14.299z" fill="#e9afaf" stroke="#000" stroke-width="4"/>
   <path transform="translate(-161.62 1526.9)" d="m423.12 257.32s0.29316-1.5935-0.0827-3.2555c-0.40593-1.7948-0.94264-4.4553-1.7297-5.7652-2.3017-3.8307-6.9351-2.4199-6.6876-2.967 0.48268-1.0669 2.3704-3.0918 4.492-1.7696 8.3499 5.204 10.162 20.355 2.5998 16.249"/>
  </g>
  <g transform="matrix(.073412 -.65818 .65818 .073412 -766.64 1957.1)">
   <path transform="matrix(.91193 -.41034 .41034 .91193 -227.94 1721.9)" d="m430.27 252.01c0 7.897-4.0739 14.299-9.0993 14.299s-9.0993-6.4018-9.0993-14.299c0-7.897 4.0739-14.299 9.0993-14.299s9.0993 6.4018 9.0993 14.299z" fill="#e9afaf" stroke="#000" stroke-width="4"/>
   <path transform="translate(-161.62 1526.9)" d="m423.12 257.32s0.29316-1.5935-0.0827-3.2555c-0.40593-1.7948-0.94264-4.4553-1.7297-5.7652-2.3017-3.8307-6.9351-2.4199-6.6876-2.967 0.48268-1.0669 2.3704-3.0918 4.492-1.7696 8.3499 5.204 10.162 20.355 2.5998 16.249"/>
   <path transform="matrix(.91193 -.41034 .41034 .91193 -227.94 1721.9)" d="m430.27 252.01c0 7.897-4.0739 14.299-9.0993 14.299s-9.0993-6.4018-9.0993-14.299c0-7.897 4.0739-14.299 9.0993-14.299s9.0993 6.4018 9.0993 14.299z" fill="#e9afaf" stroke="#000" stroke-width="4"/>
   <path transform="translate(-161.62 1526.9)" d="m423.12 257.32s0.29316-1.5935-0.0827-3.2555c-0.40593-1.7948-0.94264-4.4553-1.7297-5.7652-2.3017-3.8307-6.9351-2.4199-6.6876-2.967 0.48268-1.0669 2.3704-3.0918 4.492-1.7696 8.3499 5.204 10.162 20.355 2.5998 16.249"/>
   <path transform="matrix(.78627 -.39632 .36984 .91645 -163.52 1714.7)" d="m430.27 252.01c0 7.897-4.0739 14.299-9.0993 14.299s-9.0993-6.4018-9.0993-14.299c0-7.897 4.0739-14.299 9.0993-14.299s9.0993 6.4018 9.0993 14.299z" fill="#e9afaf" stroke="#000" stroke-width="4"/>
   <path transform="translate(-161.62 1526.9)" d="m423.12 257.32s0.29316-1.5935-0.0827-3.2555c-0.40593-1.7948-0.94264-4.4553-1.7297-5.7652-2.3017-3.8307-6.9351-2.4199-6.6876-2.967 0.48268-1.0669 2.3704-3.0918 4.492-1.7696 8.3499 5.204 10.162 20.355 2.5998 16.249"/>
  </g>
  <g transform="matrix(.99362 .11276 .11276 -.99362 -300.32 3835.9)">
   <path transform="matrix(-.20313 -.63034 .63034 -.20313 185.38 2203)" d="m430.27 252.01c0 7.897-4.0739 14.299-9.0993 14.299s-9.0993-6.4018-9.0993-14.299c0-7.897 4.0739-14.299 9.0993-14.299s9.0993 6.4018 9.0993 14.299z" fill="#e9afaf" stroke="#000" stroke-width="4"/>
   <path d="m262.32 1885.4s-1.0273-0.31-2.1488-0.1846c-1.2111 0.1354-3.0016 0.2934-3.9215 0.7152-2.6903 1.2337-2.1018 4.387-2.4438 4.1839-0.6668-0.396-1.861-1.7871-0.83493-3.0865 4.0382-5.1137 14.143-5.194 10.885-0.5183"/>
  </g>
  <g transform="matrix(.83828 .54524 .54524 -.83828 -1085 3415.8)">
   <path transform="matrix(-.20313 -.63034 .63034 -.20313 185.38 2203)" d="m430.27 252.01c0 7.897-4.0739 14.299-9.0993 14.299s-9.0993-6.4018-9.0993-14.299c0-7.897 4.0739-14.299 9.0993-14.299s9.0993 6.4018 9.0993 14.299z" fill="#e9afaf" stroke="#000" stroke-width="4"/>
   <path d="m262.32 1885.4s-1.0273-0.31-2.1488-0.1846c-1.2111 0.1354-3.0016 0.2934-3.9215 0.7152-2.6903 1.2337-2.1018 4.387-2.4438 4.1839-0.6668-0.396-1.861-1.7871-0.83493-3.0865 4.0382-5.1137 14.143-5.194 10.885-0.5183"/>
  </g>
  <g transform="matrix(.26104 .94579 .7602 -.32477 -1340.4 2326.2)">
   <path transform="matrix(-.20313 -.63034 .63034 -.20313 185.38 2203)" d="m430.27 252.01c0 7.897-4.0739 14.299-9.0993 14.299s-9.0993-6.4018-9.0993-14.299c0-7.897 4.0739-14.299 9.0993-14.299s9.0993 6.4018 9.0993 14.299z" fill="#e9afaf" stroke="#000" stroke-width="4"/>
   <path d="m262.32 1885.4s-1.0273-0.31-2.1488-0.1846c-1.2111 0.1354-3.0016 0.2934-3.9215 0.7152-2.6903 1.2337-2.1018 4.387-2.4438 4.1839-0.6668-0.396-1.861-1.7871-0.83493-3.0865 4.0382-5.1137 14.143-5.194 10.885-0.5183"/>
  </g>
  <g transform="matrix(.93012 .36726 -.36726 .93012 317.41 37.681)">
   <path transform="matrix(-.20313 -.63034 .63034 -.20313 185.38 2203)" d="m430.27 252.01c0 7.897-4.0739 14.299-9.0993 14.299s-9.0993-6.4018-9.0993-14.299c0-7.897 4.0739-14.299 9.0993-14.299s9.0993 6.4018 9.0993 14.299z" fill="#e9afaf" stroke="#000" stroke-width="4"/>
   <path d="m262.32 1885.4s-1.0273-0.31-2.1488-0.1846c-1.2111 0.1354-3.0016 0.2934-3.9215 0.7152-2.6903 1.2337-2.1018 4.387-2.4438 4.1839-0.6668-0.396-1.861-1.7871-0.83493-3.0865 4.0382-5.1137 14.143-5.194 10.885-0.5183"/>
  </g>
  <g transform="matrix(.85695 .5154 -.5154 .85695 658.67 140.41)">
   <path transform="matrix(-.20313 -.63034 .63034 -.20313 185.38 2203)" d="m430.27 252.01c0 7.897-4.0739 14.299-9.0993 14.299s-9.0993-6.4018-9.0993-14.299c0-7.897 4.0739-14.299 9.0993-14.299s9.0993 6.4018 9.0993 14.299z" fill="#e9afaf" stroke="#000" stroke-width="4"/>
   <path d="m262.32 1885.4s-1.0273-0.31-2.1488-0.1846c-1.2111 0.1354-3.0016 0.2934-3.9215 0.7152-2.6903 1.2337-2.1018 4.387-2.4438 4.1839-0.6668-0.396-1.861-1.7871-0.83493-3.0865 4.0382-5.1137 14.143-5.194 10.885-0.5183"/>
  </g>
  <g transform="matrix(.93012 .36726 -.36726 .93012 339.07 38.114)">
   <path transform="matrix(-.20313 -.63034 .63034 -.20313 185.38 2203)" d="m430.27 252.01c0 7.897-4.0739 14.299-9.0993 14.299s-9.0993-6.4018-9.0993-14.299c0-7.897 4.0739-14.299 9.0993-14.299s9.0993 6.4018 9.0993 14.299z" fill="#e9afaf" stroke="#000" stroke-width="4"/>
   <path d="m262.32 1885.4s-1.0273-0.31-2.1488-0.1846c-1.2111 0.1354-3.0016 0.2934-3.9215 0.7152-2.6903 1.2337-2.1018 4.387-2.4438 4.1839-0.6668-0.396-1.861-1.7871-0.83493-3.0865 4.0382-5.1137 14.143-5.194 10.885-0.5183"/>
  </g>
  <g transform="matrix(.85695 .5154 -.5154 .85695 679.9 144.75)">
   <path transform="matrix(-.20313 -.63034 .63034 -.20313 185.38 2203)" d="m430.27 252.01c0 7.897-4.0739 14.299-9.0993 14.299s-9.0993-6.4018-9.0993-14.299c0-7.897 4.0739-14.299 9.0993-14.299s9.0993 6.4018 9.0993 14.299z" fill="#e9afaf" stroke="#000" stroke-width="4"/>
   <path d="m262.32 1885.4s-1.0273-0.31-2.1488-0.1846c-1.2111 0.1354-3.0016 0.2934-3.9215 0.7152-2.6903 1.2337-2.1018 4.387-2.4438 4.1839-0.6668-0.396-1.861-1.7871-0.83493-3.0865 4.0382-5.1137 14.143-5.194 10.885-0.5183"/>
  </g>
  <g transform="matrix(.93758 .34777 -.34777 .93758 365.82 37.75)">
   <path transform="matrix(-.20313 -.63034 .63034 -.20313 185.38 2203)" d="m430.27 252.01c0 7.897-4.0739 14.299-9.0993 14.299s-9.0993-6.4018-9.0993-14.299c0-7.897 4.0739-14.299 9.0993-14.299s9.0993 6.4018 9.0993 14.299z" fill="#e9afaf" stroke="#000" stroke-width="4"/>
   <path d="m262.32 1885.4s-1.0273-0.31-2.1488-0.1846c-1.2111 0.1354-3.0016 0.2934-3.9215 0.7152-2.6903 1.2337-2.1018 4.387-2.4438 4.1839-0.6668-0.396-1.861-1.7871-0.83493-3.0865 4.0382-5.1137 14.143-5.194 10.885-0.5183"/>
  </g>
  <g transform="matrix(1.029 .11019 -.23228 .81922 146.64 322.46)">
   <path transform="matrix(-.20313 -.63034 .63034 -.20313 185.38 2203)" d="m430.27 252.01c0 7.897-4.0739 14.299-9.0993 14.299s-9.0993-6.4018-9.0993-14.299c0-7.897 4.0739-14.299 9.0993-14.299s9.0993 6.4018 9.0993 14.299z" fill="#e9afaf" stroke="#000" stroke-width="4"/>
   <path d="m262.32 1885.4s-1.0273-0.31-2.1488-0.1846c-1.2111 0.1354-3.0016 0.2934-3.9215 0.7152-2.6903 1.2337-2.1018 4.387-2.4438 4.1839-0.6668-0.396-1.861-1.7871-0.83493-3.0865 4.0382-5.1137 14.143-5.194 10.885-0.5183"/>
  </g>
  <g transform="matrix(.93902 -.27336 .091293 .79956 -418.49 453.58)">
   <path transform="matrix(-.20313 -.63034 .63034 -.20313 185.38 2203)" d="m427.95 252.01c0 7.897-3.0384 14.299-6.7864 14.299s-6.7864-6.4018-6.7864-14.299c0-7.897 3.0384-14.299 6.7864-14.299s6.7864 6.4018 6.7864 14.299z" fill="#e9afaf" stroke="#000" stroke-width="4"/>
   <path d="m262.32 1885.4s-1.0273-0.31-2.1488-0.1846c-1.2111 0.1354-3.0016 0.2934-3.9215 0.7152-2.6903 1.2337-2.1018 4.387-2.4438 4.1839-0.6668-0.396-1.861-1.7871-0.83493-3.0865 4.0382-5.1137 14.143-5.194 10.885-0.5183"/>
  </g>
  <g transform="matrix(-1.1268 .6362 .6362 1.1268 -938.27 -506.21)">
   <path transform="matrix(-.20313 -.63034 .63034 -.20313 185.38 2203)" d="m430.27 252.01c0 7.897-4.0739 14.299-9.0993 14.299s-9.0993-6.4018-9.0993-14.299c0-7.897 4.0739-14.299 9.0993-14.299s9.0993 6.4018 9.0993 14.299z" fill="#e9afaf" stroke="#000" stroke-width="4"/>
   <path d="m262.32 1885.4s-1.0273-0.31-2.1488-0.1846c-1.2111 0.1354-3.0016 0.2934-3.9215 0.7152-2.6903 1.2337-2.1018 4.387-2.4438 4.1839-0.6668-0.396-1.861-1.7871-0.83493-3.0865 4.0382-5.1137 14.143-5.194 10.885-0.5183"/>
  </g>
  <g transform="matrix(-.85695 .5154 .5154 .85695 -828.73 32.742)">
   <path transform="matrix(-.20313 -.63034 .63034 -.20313 185.38 2203)" d="m430.27 252.01c0 7.897-4.0739 14.299-9.0993 14.299s-9.0993-6.4018-9.0993-14.299c0-7.897 4.0739-14.299 9.0993-14.299s9.0993 6.4018 9.0993 14.299z" fill="#e9afaf" stroke="#000" stroke-width="4"/>
   <path d="m262.32 1885.4s-1.0273-0.31-2.1488-0.1846c-1.2111 0.1354-3.0016 0.2934-3.9215 0.7152-2.6903 1.2337-2.1018 4.387-2.4438 4.1839-0.6668-0.396-1.861-1.7871-0.83493-3.0865 4.0382-5.1137 14.143-5.194 10.885-0.5183"/>
  </g>
  <g transform="matrix(-1.0395 .41044 .41044 1.0395 -561 -281.41)">
   <path transform="matrix(-.20313 -.63034 .63034 -.20313 185.38 2203)" d="m430.27 252.01c0 7.897-4.0739 14.299-9.0993 14.299s-9.0993-6.4018-9.0993-14.299c0-7.897 4.0739-14.299 9.0993-14.299s9.0993 6.4018 9.0993 14.299z" fill="#e9afaf" stroke="#000" stroke-width="4"/>
   <path d="m262.32 1885.4s-1.0273-0.31-2.1488-0.1846c-1.2111 0.1354-3.0016 0.2934-3.9215 0.7152-2.6903 1.2337-2.1018 4.387-2.4438 4.1839-0.6668-0.396-1.861-1.7871-0.83493-3.0865 4.0382-5.1137 14.143-5.194 10.885-0.5183"/>
  </g>
  <g transform="matrix(-.85695 .5154 .5154 .85695 -849.1 29.709)">
   <path transform="matrix(-.20313 -.63034 .63034 -.20313 185.38 2203)" d="m430.27 252.01c0 7.897-4.0739 14.299-9.0993 14.299s-9.0993-6.4018-9.0993-14.299c0-7.897 4.0739-14.299 9.0993-14.299s9.0993 6.4018 9.0993 14.299z" fill="#e9afaf" stroke="#000" stroke-width="4"/>
   <path d="m262.32 1885.4s-1.0273-0.31-2.1488-0.1846c-1.2111 0.1354-3.0016 0.2934-3.9215 0.7152-2.6903 1.2337-2.1018 4.387-2.4438 4.1839-0.6668-0.396-1.861-1.7871-0.83493-3.0865 4.0382-5.1137 14.143-5.194 10.885-0.5183"/>
  </g>
  <g transform="matrix(-.93758 .34777 .34777 .93758 -534.15 -84.219)">
   <path transform="matrix(-.20313 -.63034 .63034 -.20313 185.38 2203)" d="m430.27 252.01c0 7.897-4.0739 14.299-9.0993 14.299s-9.0993-6.4018-9.0993-14.299c0-7.897 4.0739-14.299 9.0993-14.299s9.0993 6.4018 9.0993 14.299z" fill="#e9afaf" stroke="#000" stroke-width="4"/>
   <path d="m262.32 1885.4s-1.0273-0.31-2.1488-0.1846c-1.2111 0.1354-3.0016 0.2934-3.9215 0.7152-2.6903 1.2337-2.1018 4.387-2.4438 4.1839-0.6668-0.396-1.861-1.7871-0.83493-3.0865 4.0382-5.1137 14.143-5.194 10.885-0.5183"/>
  </g>
  <g transform="matrix(-1.1081 .85148 .85148 1.1081 -1320.4 -535.19)">
   <path transform="matrix(-.20313 -.63034 .63034 -.20313 185.38 2203)" d="m430.27 252.01c0 7.897-4.0739 14.299-9.0993 14.299s-9.0993-6.4018-9.0993-14.299c0-7.897 4.0739-14.299 9.0993-14.299s9.0993 6.4018 9.0993 14.299z" fill="#e9afaf" stroke="#000" stroke-width="4"/>
   <path d="m262.32 1885.4s-1.0273-0.31-2.1488-0.1846c-1.2111 0.1354-3.0016 0.2934-3.9215 0.7152-2.6903 1.2337-2.1018 4.387-2.4438 4.1839-0.6668-0.396-1.861-1.7871-0.83493-3.0865 4.0382-5.1137 14.143-5.194 10.885-0.5183"/>
  </g>
  <g transform="matrix(-1.2177 .93573 .93573 1.2177 -1420.5 -777)">
   <path transform="matrix(-.20313 -.63034 .63034 -.20313 185.38 2203)" d="m430.27 252.01c0 7.897-4.0739 14.299-9.0993 14.299s-9.0993-6.4018-9.0993-14.299c0-7.897 4.0739-14.299 9.0993-14.299s9.0993 6.4018 9.0993 14.299z" fill="#e9afaf" stroke="#000" stroke-width="4"/>
   <path d="m262.32 1885.4s-1.0273-0.31-2.1488-0.1846c-1.2111 0.1354-3.0016 0.2934-3.9215 0.7152-2.6903 1.2337-2.1018 4.387-2.4438 4.1839-0.6668-0.396-1.861-1.7871-0.83493-3.0865 4.0382-5.1137 14.143-5.194 10.885-0.5183"/>
  </g>
  <g transform="matrix(-1.0444 1.3556 1.3556 1.0444 -2229.2 -583.69)">
   <path transform="matrix(-.20313 -.63034 .63034 -.20313 185.38 2203)" d="m430.27 252.01c0 7.897-4.0739 14.299-9.0993 14.299s-9.0993-6.4018-9.0993-14.299c0-7.897 4.0739-14.299 9.0993-14.299s9.0993 6.4018 9.0993 14.299z" fill="#e9afaf" stroke="#000" stroke-width="4"/>
   <path d="m262.32 1885.4s-1.0273-0.31-2.1488-0.1846c-1.2111 0.1354-3.0016 0.2934-3.9215 0.7152-2.6903 1.2337-2.1018 4.387-2.4438 4.1839-0.6668-0.396-1.861-1.7871-0.83493-3.0865 4.0382-5.1137 14.143-5.194 10.885-0.5183"/>
  </g>
  <path transform="translate(-161.62 1526.9)" d="m295.18 153.55c0.0146-0.0108 0.0291-0.0215 0.0436-0.0322 4.5093-3.3269 5.0292-3.489 6.9828-5.217 4.0852-3.6135 11.145-8.4269 15.83-3.7418 6.9328 6.9328 11.266 10.399 22.532 17.332 11.266 6.9328 13.866 8.666 17.332 14.732" fill="none" stroke="#000" stroke-width="4"/>
  <flowRoot transform="matrix(.9785 -.20624 .20624 .9785 -215.67 1645.9)" color="#000000" fill="#000000" letter-spacing="0px" word-spacing="0px" style="line-height:125%" xml:space="preserve">
          <flowRegion>
            <rect x="515.35" y="351.25" width="101.41" height="26.656"/>
          </flowRegion>
          <flowPara fill="#501616">JJP 2014</flowPara>
        </flowRoot>
 </g>
</svg>
